<svg xmlns="http://www.w3.org/2000/svg" viewBox="0 0 128 128" width="128" height="128"><defs><linearGradient id="ic-library-g0" gradientUnits="userSpaceOnUse" x1="0" y1="8" x2="0" y2="120"><stop offset="0" stop-color="#a77cc0"/><stop offset="1" stop-color="#653a86"/></linearGradient><filter id="ic-library-f1" x="-40%" y="-40%" width="180%" height="190%" color-interpolation-filters="sRGB"><feGaussianBlur in="SourceAlpha" stdDeviation="2" result="ab"/><feOffset in="ab" dy="1.6" result="ao"/><feFlood flood-color="#000" flood-opacity="0.26"/><feComposite in2="ao" operator="in" result="amb"/><feGaussianBlur in="SourceAlpha" stdDeviation="0.6" result="cb"/><feOffset in="cb" dy="0.5" result="co"/><feFlood flood-color="#000" flood-opacity="0.2"/><feComposite in2="co" operator="in" result="con"/><feGaussianBlur in="SourceAlpha" stdDeviation="0.9" result="bb"/><feOffset in="bb" dy="1.3" result="bd"/><feComposite in="SourceAlpha" in2="bd" operator="out" result="te"/><feFlood flood-color="#fff" flood-opacity="0.41"/><feComposite in2="te" operator="in" result="tl"/><feOffset in="bb" dy="-1.3" result="bu"/><feComposite in="SourceAlpha" in2="bu" operator="out" result="be"/><feFlood flood-color="#2c1240" flood-opacity="0.22"/><feComposite in2="be" operator="in" result="bl"/><feMerge><feMergeNode in="amb"/><feMergeNode in="con"/><feMergeNode in="SourceGraphic"/><feMergeNode in="tl"/><feMergeNode in="bl"/></feMerge></filter><mask id="ic-library-t2" maskUnits="userSpaceOnUse" x="0" y="0" width="128" height="128"><path d="M120,64C120,70.8 119.96,79.81 119.88,84.4C119.8,88.99 119.69,89.47 119.53,91.52C119.37,93.57 119.18,95.15 118.94,96.71C118.7,98.27 118.42,99.6 118.11,100.88C117.79,102.16 117.43,103.3 117.02,104.38C116.62,105.46 116.17,106.44 115.68,107.37C115.19,108.3 114.66,109.15 114.07,109.95C113.48,110.75 112.85,111.48 112.17,112.17C111.48,112.85 110.75,113.48 109.95,114.07C109.15,114.66 108.3,115.19 107.37,115.68C106.44,116.17 105.46,116.62 104.38,117.02C103.3,117.43 102.16,117.79 100.88,118.11C99.6,118.42 98.27,118.7 96.71,118.94C95.15,119.18 93.57,119.37 91.52,119.53C89.47,119.69 88.99,119.8 84.4,119.88C79.81,119.96 70.8,120 64,120C57.2,120 48.19,119.96 43.6,119.88C39.01,119.8 38.53,119.69 36.48,119.53C34.43,119.37 32.85,119.18 31.29,118.94C29.73,118.7 28.4,118.42 27.12,118.11C25.84,117.79 24.7,117.43 23.62,117.02C22.54,116.62 21.56,116.17 20.63,115.68C19.7,115.19 18.85,114.66 18.05,114.07C17.25,113.48 16.52,112.85 15.83,112.17C15.15,111.48 14.52,110.75 13.93,109.95C13.34,109.15 12.81,108.3 12.32,107.37C11.83,106.44 11.38,105.46 10.98,104.38C10.57,103.3 10.21,102.16 9.89,100.88C9.58,99.6 9.3,98.27 9.06,96.71C8.82,95.15 8.63,93.57 8.47,91.52C8.31,89.47 8.2,88.99 8.12,84.4C8.04,79.81 8,70.8 8,64C8,57.2 8.04,48.19 8.12,43.6C8.2,39.01 8.31,38.53 8.47,36.48C8.63,34.43 8.82,32.85 9.06,31.29C9.3,29.73 9.58,28.4 9.89,27.12C10.21,25.84 10.57,24.7 10.98,23.62C11.38,22.54 11.83,21.56 12.32,20.63C12.81,19.7 13.34,18.85 13.93,18.05C14.52,17.25 15.15,16.52 15.83,15.83C16.52,15.15 17.25,14.52 18.05,13.93C18.85,13.34 19.7,12.81 20.63,12.32C21.56,11.83 22.54,11.38 23.62,10.98C24.7,10.57 25.84,10.21 27.12,9.89C28.4,9.58 29.73,9.3 31.29,9.06C32.85,8.82 34.43,8.63 36.48,8.47C38.53,8.31 39.01,8.2 43.6,8.12C48.19,8.04 57.2,8 64,8C70.8,8 79.81,8.04 84.4,8.12C88.99,8.2 89.47,8.31 91.52,8.47C93.57,8.63 95.15,8.82 96.71,9.06C98.27,9.3 99.6,9.58 100.88,9.89C102.16,10.21 103.3,10.57 104.38,10.98C105.46,11.38 106.44,11.83 107.37,12.32C108.3,12.81 109.15,13.34 109.95,13.93C110.75,14.52 111.48,15.15 112.17,15.83C112.85,16.52 113.48,17.25 114.07,18.05C114.66,18.85 115.19,19.7 115.68,20.63C116.17,21.56 116.62,22.54 117.02,23.62C117.43,24.7 117.79,25.84 118.11,27.12C118.42,28.4 118.7,29.73 118.94,31.29C119.18,32.85 119.37,34.43 119.53,36.48C119.69,38.53 119.8,39.01 119.88,43.6C119.96,48.19 120,57.2 120,64Z" fill="#fff"/></mask><linearGradient id="ic-library-g3" gradientUnits="userSpaceOnUse" x1="0" y1="8" x2="0" y2="120"><stop offset="0" stop-color="#fff" stop-opacity="0.41"/><stop offset="0.18" stop-color="#fff" stop-opacity="0.06"/><stop offset="0.7" stop-color="#fff" stop-opacity="0"/><stop offset="1" stop-color="#fff" stop-opacity="0.17"/></linearGradient><radialGradient id="ic-library-g4" gradientUnits="userSpaceOnUse" cx="0" cy="0" r="1"><stop offset="0" stop-color="#fff" stop-opacity="0.22"/><stop offset="0.55" stop-color="#fff" stop-opacity="0.1"/><stop offset="1" stop-color="#fff" stop-opacity="0"/></radialGradient><linearGradient id="ic-library-g5" gradientUnits="userSpaceOnUse" x1="0" y1="84" x2="0" y2="120"><stop offset="0" stop-color="#fff" stop-opacity="0"/><stop offset="1" stop-color="#fff" stop-opacity="0.05"/></linearGradient><linearGradient id="ic-library-g6" gradientUnits="userSpaceOnUse" x1="29" y1="0" x2="41" y2="0"><stop offset="0" stop-color="#c8261c"/><stop offset="0.3" stop-color="#ff6a5a"/><stop offset="0.7" stop-color="#ff6a5a"/><stop offset="1" stop-color="#c8261c"/></linearGradient><linearGradient id="ic-library-g7" gradientUnits="userSpaceOnUse" x1="42" y1="0" x2="56" y2="0"><stop offset="0" stop-color="#2c63c9"/><stop offset="0.3" stop-color="#5b9cf0"/><stop offset="0.7" stop-color="#5b9cf0"/><stop offset="1" stop-color="#2c63c9"/></linearGradient><linearGradient id="ic-library-g8" gradientUnits="userSpaceOnUse" x1="57" y1="0" x2="68" y2="0"><stop offset="0" stop-color="#e39b12"/><stop offset="0.3" stop-color="#ffd24a"/><stop offset="0.7" stop-color="#ffd24a"/><stop offset="1" stop-color="#e39b12"/></linearGradient><linearGradient id="ic-library-g9" gradientUnits="userSpaceOnUse" x1="69" y1="0" x2="82" y2="0"><stop offset="0" stop-color="#17955a"/><stop offset="0.3" stop-color="#45d08a"/><stop offset="0.7" stop-color="#45d08a"/><stop offset="1" stop-color="#17955a"/></linearGradient><linearGradient id="ic-library-g10" gradientUnits="userSpaceOnUse" x1="86" y1="0" x2="98" y2="0"><stop offset="0" stop-color="#d76a1c"/><stop offset="0.4" stop-color="#ff9a3c"/><stop offset="1" stop-color="#d76a1c"/></linearGradient><linearGradient id="ic-library-g11" gradientUnits="userSpaceOnUse" x1="0" y1="92" x2="0" y2="100"><stop offset="0" stop-color="#e8b27a"/><stop offset="1" stop-color="#a5622c"/></linearGradient><filter id="ic-library-f12" x="-40%" y="-40%" width="180%" height="190%" color-interpolation-filters="sRGB"><feGaussianBlur in="SourceAlpha" stdDeviation="2.2" result="ab"/><feOffset in="ab" dy="1.8" result="ao"/><feFlood flood-color="#2c1240" flood-opacity="0.24"/><feComposite in2="ao" operator="in" result="amb"/><feGaussianBlur in="SourceAlpha" stdDeviation="0.7" result="cb"/><feOffset in="cb" dy="0.8" result="co"/><feFlood flood-color="#2c1240" flood-opacity="0.3"/><feComposite in2="co" operator="in" result="con"/><feGaussianBlur in="SourceAlpha" stdDeviation="0.6" result="bb"/><feOffset in="bb" dy="1" result="bd"/><feComposite in="SourceAlpha" in2="bd" operator="out" result="te"/><feFlood flood-color="#fff" flood-opacity="0.45"/><feComposite in2="te" operator="in" result="tl"/><feOffset in="bb" dy="-1" result="bu"/><feComposite in="SourceAlpha" in2="bu" operator="out" result="be"/><feFlood flood-color="#2c1240" flood-opacity="0.22"/><feComposite in2="be" operator="in" result="bl"/><feMerge><feMergeNode in="amb"/><feMergeNode in="con"/><feMergeNode in="SourceGraphic"/><feMergeNode in="tl"/><feMergeNode in="bl"/></feMerge></filter><mask id="ic-library-k13" maskUnits="userSpaceOnUse" x="0" y="0" width="128" height="128"><g fill="#fff"><rect x="29" y="40" width="12" height="52" rx="2.2"/></g></mask><filter id="ic-library-f14" x="-40%" y="-40%" width="180%" height="190%" color-interpolation-filters="sRGB"><feGaussianBlur in="SourceAlpha" stdDeviation="2.2" result="ab"/><feOffset in="ab" dy="1.8" result="ao"/><feFlood flood-color="#2c1240" flood-opacity="0.24"/><feComposite in2="ao" operator="in" result="amb"/><feGaussianBlur in="SourceAlpha" stdDeviation="0.7" result="cb"/><feOffset in="cb" dy="0.8" result="co"/><feFlood flood-color="#2c1240" flood-opacity="0.3"/><feComposite in2="co" operator="in" result="con"/><feGaussianBlur in="SourceAlpha" stdDeviation="0.6" result="bb"/><feOffset in="bb" dy="1" result="bd"/><feComposite in="SourceAlpha" in2="bd" operator="out" result="te"/><feFlood flood-color="#fff" flood-opacity="0.45"/><feComposite in2="te" operator="in" result="tl"/><feOffset in="bb" dy="-1" result="bu"/><feComposite in="SourceAlpha" in2="bu" operator="out" result="be"/><feFlood flood-color="#2c1240" flood-opacity="0.22"/><feComposite in2="be" operator="in" result="bl"/><feMerge><feMergeNode in="amb"/><feMergeNode in="con"/><feMergeNode in="SourceGraphic"/><feMergeNode in="tl"/><feMergeNode in="bl"/></feMerge></filter><mask id="ic-library-k15" maskUnits="userSpaceOnUse" x="0" y="0" width="128" height="128"><g fill="#fff"><rect x="42" y="33" width="14" height="59" rx="2.2"/></g></mask><filter id="ic-library-f16" x="-40%" y="-40%" width="180%" height="190%" color-interpolation-filters="sRGB"><feGaussianBlur in="SourceAlpha" stdDeviation="2.2" result="ab"/><feOffset in="ab" dy="1.8" result="ao"/><feFlood flood-color="#2c1240" flood-opacity="0.24"/><feComposite in2="ao" operator="in" result="amb"/><feGaussianBlur in="SourceAlpha" stdDeviation="0.7" result="cb"/><feOffset in="cb" dy="0.8" result="co"/><feFlood flood-color="#2c1240" flood-opacity="0.3"/><feComposite in2="co" operator="in" result="con"/><feGaussianBlur in="SourceAlpha" stdDeviation="0.6" result="bb"/><feOffset in="bb" dy="1" result="bd"/><feComposite in="SourceAlpha" in2="bd" operator="out" result="te"/><feFlood flood-color="#fff" flood-opacity="0.45"/><feComposite in2="te" operator="in" result="tl"/><feOffset in="bb" dy="-1" result="bu"/><feComposite in="SourceAlpha" in2="bu" operator="out" result="be"/><feFlood flood-color="#2c1240" flood-opacity="0.22"/><feComposite in2="be" operator="in" result="bl"/><feMerge><feMergeNode in="amb"/><feMergeNode in="con"/><feMergeNode in="SourceGraphic"/><feMergeNode in="tl"/><feMergeNode in="bl"/></feMerge></filter><mask id="ic-library-k17" maskUnits="userSpaceOnUse" x="0" y="0" width="128" height="128"><g fill="#fff"><rect x="57" y="44" width="11" height="48" rx="2.2"/></g></mask><filter id="ic-library-f18" x="-40%" y="-40%" width="180%" height="190%" color-interpolation-filters="sRGB"><feGaussianBlur in="SourceAlpha" stdDeviation="2.2" result="ab"/><feOffset in="ab" dy="1.8" result="ao"/><feFlood flood-color="#2c1240" flood-opacity="0.24"/><feComposite in2="ao" operator="in" result="amb"/><feGaussianBlur in="SourceAlpha" stdDeviation="0.7" result="cb"/><feOffset in="cb" dy="0.8" result="co"/><feFlood flood-color="#2c1240" flood-opacity="0.3"/><feComposite in2="co" operator="in" result="con"/><feGaussianBlur in="SourceAlpha" stdDeviation="0.6" result="bb"/><feOffset in="bb" dy="1" result="bd"/><feComposite in="SourceAlpha" in2="bd" operator="out" result="te"/><feFlood flood-color="#fff" flood-opacity="0.45"/><feComposite in2="te" operator="in" result="tl"/><feOffset in="bb" dy="-1" result="bu"/><feComposite in="SourceAlpha" in2="bu" operator="out" result="be"/><feFlood flood-color="#2c1240" flood-opacity="0.22"/><feComposite in2="be" operator="in" result="bl"/><feMerge><feMergeNode in="amb"/><feMergeNode in="con"/><feMergeNode in="SourceGraphic"/><feMergeNode in="tl"/><feMergeNode in="bl"/></feMerge></filter><mask id="ic-library-k19" maskUnits="userSpaceOnUse" x="0" y="0" width="128" height="128"><g fill="#fff"><rect x="69" y="37" width="13" height="55" rx="2.2"/></g></mask><filter id="ic-library-f20" x="-40%" y="-40%" width="180%" height="190%" color-interpolation-filters="sRGB"><feGaussianBlur in="SourceAlpha" stdDeviation="2.2" result="ab"/><feOffset in="ab" dy="1.8" result="ao"/><feFlood flood-color="#2c1240" flood-opacity="0.24"/><feComposite in2="ao" operator="in" result="amb"/><feGaussianBlur in="SourceAlpha" stdDeviation="0.7" result="cb"/><feOffset in="cb" dy="0.8" result="co"/><feFlood flood-color="#2c1240" flood-opacity="0.3"/><feComposite in2="co" operator="in" result="con"/><feGaussianBlur in="SourceAlpha" stdDeviation="0.6" result="bb"/><feOffset in="bb" dy="1" result="bd"/><feComposite in="SourceAlpha" in2="bd" operator="out" result="te"/><feFlood flood-color="#fff" flood-opacity="0.45"/><feComposite in2="te" operator="in" result="tl"/><feOffset in="bb" dy="-1" result="bu"/><feComposite in="SourceAlpha" in2="bu" operator="out" result="be"/><feFlood flood-color="#2c1240" flood-opacity="0.22"/><feComposite in2="be" operator="in" result="bl"/><feMerge><feMergeNode in="amb"/><feMergeNode in="con"/><feMergeNode in="SourceGraphic"/><feMergeNode in="tl"/><feMergeNode in="bl"/></feMerge></filter><mask id="ic-library-k21" maskUnits="userSpaceOnUse" x="0" y="0" width="128" height="128"><g fill="#fff"><g transform="rotate(13 86 92)"><rect x="86" y="46" width="12" height="46" rx="2.2"/></g></g></mask><filter id="ic-library-f22" x="-40%" y="-40%" width="180%" height="190%" color-interpolation-filters="sRGB"><feGaussianBlur in="SourceAlpha" stdDeviation="2.2" result="ab"/><feOffset in="ab" dy="1.8" result="ao"/><feFlood flood-color="#2c1240" flood-opacity="0.24"/><feComposite in2="ao" operator="in" result="amb"/><feGaussianBlur in="SourceAlpha" stdDeviation="0.7" result="cb"/><feOffset in="cb" dy="0.8" result="co"/><feFlood flood-color="#2c1240" flood-opacity="0.3"/><feComposite in2="co" operator="in" result="con"/><feGaussianBlur in="SourceAlpha" stdDeviation="0.6" result="bb"/><feOffset in="bb" dy="1" result="bd"/><feComposite in="SourceAlpha" in2="bd" operator="out" result="te"/><feFlood flood-color="#fff" flood-opacity="0.45"/><feComposite in2="te" operator="in" result="tl"/><feOffset in="bb" dy="-1" result="bu"/><feComposite in="SourceAlpha" in2="bu" operator="out" result="be"/><feFlood flood-color="#2c1240" flood-opacity="0.22"/><feComposite in2="be" operator="in" result="bl"/><feMerge><feMergeNode in="amb"/><feMergeNode in="con"/><feMergeNode in="SourceGraphic"/><feMergeNode in="tl"/><feMergeNode in="bl"/></feMerge></filter></defs><g filter="url(#ic-library-f1)"><path d="M120,64C120,70.8 119.96,79.81 119.88,84.4C119.8,88.99 119.69,89.47 119.53,91.52C119.37,93.57 119.18,95.15 118.94,96.71C118.7,98.27 118.42,99.6 118.11,100.88C117.79,102.16 117.43,103.3 117.02,104.38C116.62,105.46 116.17,106.44 115.68,107.37C115.19,108.3 114.66,109.15 114.07,109.95C113.48,110.75 112.85,111.48 112.17,112.17C111.48,112.85 110.75,113.48 109.95,114.07C109.15,114.66 108.3,115.19 107.37,115.68C106.44,116.17 105.46,116.62 104.38,117.02C103.3,117.43 102.16,117.79 100.88,118.11C99.6,118.42 98.27,118.7 96.71,118.94C95.15,119.18 93.57,119.37 91.52,119.53C89.47,119.69 88.99,119.8 84.4,119.88C79.81,119.96 70.8,120 64,120C57.2,120 48.19,119.96 43.6,119.88C39.01,119.8 38.53,119.69 36.48,119.53C34.43,119.37 32.85,119.18 31.29,118.94C29.73,118.7 28.4,118.42 27.12,118.11C25.84,117.79 24.7,117.43 23.62,117.02C22.54,116.62 21.56,116.17 20.63,115.68C19.7,115.19 18.85,114.66 18.05,114.07C17.25,113.48 16.52,112.85 15.83,112.17C15.15,111.48 14.52,110.75 13.93,109.95C13.34,109.15 12.81,108.3 12.32,107.37C11.83,106.44 11.38,105.46 10.98,104.38C10.57,103.3 10.21,102.16 9.89,100.88C9.58,99.6 9.3,98.27 9.06,96.71C8.82,95.15 8.63,93.57 8.47,91.52C8.31,89.47 8.2,88.99 8.12,84.4C8.04,79.81 8,70.8 8,64C8,57.2 8.04,48.19 8.12,43.6C8.2,39.01 8.31,38.53 8.47,36.48C8.63,34.43 8.82,32.85 9.06,31.29C9.3,29.73 9.58,28.4 9.89,27.12C10.21,25.84 10.57,24.7 10.98,23.62C11.38,22.54 11.83,21.56 12.32,20.63C12.81,19.7 13.34,18.85 13.93,18.05C14.52,17.25 15.15,16.52 15.83,15.83C16.52,15.15 17.25,14.52 18.05,13.93C18.85,13.34 19.7,12.81 20.63,12.32C21.56,11.83 22.54,11.38 23.62,10.98C24.7,10.57 25.84,10.21 27.12,9.89C28.4,9.58 29.73,9.3 31.29,9.06C32.85,8.82 34.43,8.63 36.48,8.47C38.53,8.31 39.01,8.2 43.6,8.12C48.19,8.04 57.2,8 64,8C70.8,8 79.81,8.04 84.4,8.12C88.99,8.2 89.47,8.31 91.52,8.47C93.57,8.63 95.15,8.82 96.71,9.06C98.27,9.3 99.6,9.58 100.88,9.89C102.16,10.21 103.3,10.57 104.38,10.98C105.46,11.38 106.44,11.83 107.37,12.32C108.3,12.81 109.15,13.34 109.95,13.93C110.75,14.52 111.48,15.15 112.17,15.83C112.85,16.52 113.48,17.25 114.07,18.05C114.66,18.85 115.19,19.7 115.68,20.63C116.17,21.56 116.62,22.54 117.02,23.62C117.43,24.7 117.79,25.84 118.11,27.12C118.42,28.4 118.7,29.73 118.94,31.29C119.18,32.85 119.37,34.43 119.53,36.48C119.69,38.53 119.8,39.01 119.88,43.6C119.96,48.19 120,57.2 120,64Z" fill="url(#ic-library-g0)"/></g><g mask="url(#ic-library-t2)"><ellipse cx="0" cy="0" rx="1" ry="1" fill="url(#ic-library-g4)" transform="translate(64 10) rotate(0) scale(74 50)"/><rect x="8" y="84" width="112" height="36" fill="url(#ic-library-g5)"/><path d="M120,64C120,70.8 119.96,79.81 119.88,84.4C119.8,88.99 119.69,89.47 119.53,91.52C119.37,93.57 119.18,95.15 118.94,96.71C118.7,98.27 118.42,99.6 118.11,100.88C117.79,102.16 117.43,103.3 117.02,104.38C116.62,105.46 116.17,106.44 115.68,107.37C115.19,108.3 114.66,109.15 114.07,109.95C113.48,110.75 112.85,111.48 112.17,112.17C111.48,112.85 110.75,113.48 109.95,114.07C109.15,114.66 108.3,115.19 107.37,115.68C106.44,116.17 105.46,116.62 104.38,117.02C103.3,117.43 102.16,117.79 100.88,118.11C99.6,118.42 98.27,118.7 96.71,118.94C95.15,119.18 93.57,119.37 91.52,119.53C89.47,119.69 88.99,119.8 84.4,119.88C79.81,119.96 70.8,120 64,120C57.2,120 48.19,119.96 43.6,119.88C39.01,119.8 38.53,119.69 36.48,119.53C34.43,119.37 32.85,119.18 31.29,118.94C29.73,118.7 28.4,118.42 27.12,118.11C25.84,117.79 24.7,117.43 23.62,117.02C22.54,116.62 21.56,116.17 20.63,115.68C19.7,115.19 18.85,114.66 18.05,114.07C17.25,113.48 16.52,112.85 15.83,112.17C15.15,111.48 14.52,110.75 13.93,109.95C13.34,109.15 12.81,108.3 12.32,107.37C11.83,106.44 11.38,105.46 10.98,104.38C10.57,103.3 10.21,102.16 9.89,100.88C9.58,99.6 9.3,98.27 9.06,96.71C8.82,95.15 8.63,93.57 8.47,91.52C8.31,89.47 8.2,88.99 8.12,84.4C8.04,79.81 8,70.8 8,64C8,57.2 8.04,48.19 8.12,43.6C8.2,39.01 8.31,38.53 8.47,36.48C8.63,34.43 8.82,32.85 9.06,31.29C9.3,29.73 9.58,28.4 9.89,27.12C10.21,25.84 10.57,24.7 10.98,23.62C11.38,22.54 11.83,21.56 12.32,20.63C12.81,19.7 13.34,18.85 13.93,18.05C14.52,17.25 15.15,16.52 15.83,15.83C16.52,15.15 17.25,14.52 18.05,13.93C18.85,13.34 19.7,12.81 20.63,12.32C21.56,11.83 22.54,11.38 23.62,10.98C24.7,10.57 25.84,10.21 27.12,9.89C28.4,9.58 29.73,9.3 31.29,9.06C32.85,8.82 34.43,8.63 36.48,8.47C38.53,8.31 39.01,8.2 43.6,8.12C48.19,8.04 57.2,8 64,8C70.8,8 79.81,8.04 84.4,8.12C88.99,8.2 89.47,8.31 91.52,8.47C93.57,8.63 95.15,8.82 96.71,9.06C98.27,9.3 99.6,9.58 100.88,9.89C102.16,10.21 103.3,10.57 104.38,10.98C105.46,11.38 106.44,11.83 107.37,12.32C108.3,12.81 109.15,13.34 109.95,13.93C110.75,14.52 111.48,15.15 112.17,15.83C112.85,16.52 113.48,17.25 114.07,18.05C114.66,18.85 115.19,19.7 115.68,20.63C116.17,21.56 116.62,22.54 117.02,23.62C117.43,24.7 117.79,25.84 118.11,27.12C118.42,28.4 118.7,29.73 118.94,31.29C119.18,32.85 119.37,34.43 119.53,36.48C119.69,38.53 119.8,39.01 119.88,43.6C119.96,48.19 120,57.2 120,64Z" fill="none" stroke="url(#ic-library-g3)" stroke-width="1.6"/></g><g filter="url(#ic-library-f12)"><g fill="url(#ic-library-g6)"><rect x="29" y="40" width="12" height="52" rx="2.2"/></g><g mask="url(#ic-library-k13)"><rect x="29" y="47" width="12" height="3" fill="#fff" opacity="0.75"/><rect x="29" y="80" width="12" height="3" fill="#fff" opacity="0.75"/></g></g><g filter="url(#ic-library-f14)"><g fill="url(#ic-library-g7)"><rect x="42" y="33" width="14" height="59" rx="2.2"/></g><g mask="url(#ic-library-k15)"><rect x="42" y="40" width="14" height="3" fill="#fff" opacity="0.75"/><rect x="42" y="80" width="14" height="3" fill="#fff" opacity="0.75"/></g></g><g filter="url(#ic-library-f16)"><g fill="url(#ic-library-g8)"><rect x="57" y="44" width="11" height="48" rx="2.2"/></g><g mask="url(#ic-library-k17)"><rect x="57" y="51" width="11" height="3" fill="#fff" opacity="0.75"/><rect x="57" y="80" width="11" height="3" fill="#fff" opacity="0.75"/></g></g><g filter="url(#ic-library-f18)"><g fill="url(#ic-library-g9)"><rect x="69" y="37" width="13" height="55" rx="2.2"/></g><g mask="url(#ic-library-k19)"><rect x="69" y="44" width="13" height="3" fill="#fff" opacity="0.75"/><rect x="69" y="80" width="13" height="3" fill="#fff" opacity="0.75"/></g></g><g filter="url(#ic-library-f20)"><g fill="url(#ic-library-g10)"><g transform="rotate(13 86 92)"><rect x="86" y="46" width="12" height="46" rx="2.2"/></g></g><g mask="url(#ic-library-k21)"><g transform="rotate(13 86 92)"><rect x="86" y="53" width="12" height="3" fill="#fff" opacity="0.75"/></g></g></g><g filter="url(#ic-library-f22)"><g fill="url(#ic-library-g11)"><rect x="22" y="92" width="84" height="8" rx="3"/></g></g></svg>
